<svg viewBox="0 0 24 24" fill="none" xmlns="http://www.w3.org/2000/svg"><path d="M8.44 14.3a.9.9 0 0 1 1.26.13c.01.02.2.22.53.43.38.24.97.49 1.77.49s1.39-.25 1.77-.49c.2-.12.39-.26.53-.43a.9.9 0 0 1 1.4 1.13c-.27.33-.61.6-.97.83a5.1 5.1 0 0 1-2.73.76 5.1 5.1 0 0 1-2.73-.76 3.99 3.99 0 0 1-.97-.83.9.9 0 0 1 .14-1.26zm1.81-4.05a1.25 1.25 0 1 1-2.5 0 1.25 1.25 0 0 1 2.5 0zM15 11.5A1.25 1.25 0 1 0 15 9a1.25 1.25 0 0 0 0 2.5z" fill="currentColor"></path><path fill-rule="evenodd" clip-rule="evenodd" d="M12 2.1a9.9 9.9 0 1 0 0 19.8 9.9 9.9 0 0 0 0-19.8zM3.9 12a8.1 8.1 0 1 1 16.2 0 8.1 8.1 0 0 1-16.2 0z" fill="currentColor"></path></svg>